<svg data-v-d3f97b9e="" xmlns="http://www.w3.org/2000/svg" viewBox="0 0 425 90"><!----><!----><!----><g data-v-d3f97b9e="" id="f8fdba04-c26c-4974-b580-498e5d80879c" fill="#08374E" transform="matrix(6.054490506946714,0,0,6.054490506946714,103.15841838106184,4.828457213078728)"><path d="M7.83 3.22L7.83 2.21L1.13 2.21L1.13 11.48L2.18 11.48L2.18 7.46L7.21 7.46L7.21 6.44L2.18 6.44L2.18 3.22ZM11.90 4.37C9.76 4.37 8.43 5.98 8.43 7.98C8.43 9.98 9.76 11.59 11.90 11.59C14.04 11.59 15.37 9.98 15.37 7.98C15.37 5.98 14.04 4.37 11.90 4.37ZM11.90 10.64C10.35 10.64 9.48 9.42 9.48 7.98C9.48 6.54 10.35 5.32 11.90 5.32C13.45 5.32 14.32 6.54 14.32 7.98C14.32 9.42 13.45 10.64 11.90 10.64ZM17.81 1.68L16.76 1.68L16.76 11.48L17.81 11.48ZM20.68 1.68L19.63 1.68L19.63 11.48L20.68 11.48ZM25.54 4.37C23.39 4.37 22.06 5.98 22.06 7.98C22.06 9.98 23.39 11.59 25.54 11.59C27.68 11.59 29.01 9.98 29.01 7.98C29.01 5.98 27.68 4.37 25.54 4.37ZM25.54 10.64C23.98 10.64 23.11 9.42 23.11 7.98C23.11 6.54 23.98 5.32 25.54 5.32C27.09 5.32 27.96 6.54 27.96 7.98C27.96 9.42 27.09 10.64 25.54 10.64ZM36.46 11.48L37.66 11.48L39.86 4.48L38.74 4.48L37.06 10.18L35.28 4.48L34.13 4.48L32.35 10.18L30.67 4.48L29.55 4.48L31.75 11.48L32.96 11.48L34.71 5.89ZM43.79 4.37C41.75 4.37 40.40 5.98 40.40 7.98C40.40 9.98 41.75 11.59 43.79 11.59C44.95 11.59 45.78 11.12 46.30 10.36L46.30 11.48L47.35 11.48L47.35 4.48L46.30 4.48L46.30 5.61C45.78 4.86 44.95 4.37 43.79 4.37ZM43.93 10.64C42.38 10.64 41.45 9.42 41.45 7.98C41.45 6.54 42.38 5.32 43.93 5.32C45.49 5.32 46.35 6.54 46.35 7.98C46.35 9.42 45.49 10.64 43.93 10.64ZM50.22 1.68L49.17 1.68L49.17 11.48L50.22 11.48ZM53.09 1.68L52.04 1.68L52.04 11.48L53.09 11.48Z"></path></g><linearGradient data-v-d3f97b9e="" gradientTransform="rotate(25)" id="d74faf18-2104-404a-9769-b367b56428b5" x1="0%" y1="0%" x2="100%" y2="0%"><stop data-v-d3f97b9e="" offset="0%" style="stop-color: rgb(13, 124, 233); stop-opacity: 1;"></stop><stop data-v-d3f97b9e="" offset="100%" style="stop-color: rgb(21, 207, 241); stop-opacity: 1;"></stop></linearGradient><g data-v-d3f97b9e="" id="59f72ee0-3889-4804-9c86-6057bc1b5a7d" transform="matrix(2.8125,0,0,2.8125,0,0)" stroke="none" fill="url(#d74faf18-2104-404a-9769-b367b56428b5)"><path d="M16 32c8.837 0 16-7.163 16-16S24.837 0 16 0 0 7.163 0 16s7.163 16 16 16zM14.817 6.421h2v8.886h8.887v2H14.817V6.421zm-5.959.437h2v14.283h14.283v2H8.858V6.858z"></path></g><!----></svg>